<?xml version="1.0" encoding="utf-8"?>
<!-- Generator: Adobe Illustrator 26.0.1, SVG Export Plug-In . SVG Version: 6.00 Build 0)  -->
<svg version="1.1" id="Capa_1" xmlns="http://www.w3.org/2000/svg" xmlns:xlink="http://www.w3.org/1999/xlink" x="0px" y="0px"
	 viewBox="0 0 1576.7 326.8" style="enable-background:new 0 0 1576.7 326.8;" xml:space="preserve">
<g>
	<g>
		<g>
			<path style="fill:#54585A;" d="M1095.5,172.4h-14.2c-1.7,0-3.5,0.1-5.4,0.3c-2,0.2-3.8,0.8-5.5,1.7c-1.7,1-3.2,2.3-4.3,4.1
				c-1.1,1.8-1.7,4.3-1.7,7.5c0,4.6,1.5,7.8,4.3,9.6c2.9,1.8,6.7,2.7,11.4,2.7c0.7,0,1.7-0.1,2.9-0.1c1.2-0.1,2.6-0.2,3.9-0.4
				c1.4-0.2,2.8-0.5,4.4-0.8c1.6-0.3,3-0.7,4.2-1.3V172.4z M1113,202.5c0,2.5-1,4.2-2.9,5.2c-2.1,1-4.5,2-7,2.7
				c-2.6,0.7-5.1,1.3-7.8,1.7c-2.7,0.4-5.3,0.7-7.9,0.9c-2.7,0.2-5.1,0.2-7.5,0.2c-6.5,0-11.9-0.7-16.2-2.1
				c-4.3-1.5-7.7-3.3-10.3-5.7c-2.5-2.4-4.3-5.2-5.3-8.5c-1-3.2-1.5-6.7-1.5-10.2c0-3.8,0.6-7.3,1.7-10.8c1.1-3.5,3-6.5,5.5-9.1
				c2.7-2.6,5.9-4.7,10-6.3c4.1-1.6,9.1-2.4,15-2.4h16.6v-2.7c0-2-0.2-3.9-0.6-5.6c-0.4-1.7-1.2-3.2-2.3-4.5
				c-1.2-1.2-2.7-2.2-4.6-2.9c-2.1-0.7-4.6-1.1-7.8-1.1c-3.4,0-7,0.3-11,1c-4,0.6-7.1,1.3-9.7,2.2c-1.1,0.3-1.9,0.3-2.3,0.2
				c-0.5-0.2-0.8-0.8-1-1.8l-2.1-9.1c-0.4-1.7,0-2.8,1.3-3.3c4.1-1.6,8.7-2.9,13.6-3.6c4.9-0.6,9.6-1,13.9-1
				c10.3,0,17.8,2.4,22.6,7.3c4.8,4.9,7.2,12,7.2,21.4V202.5z"/>
			<path style="fill:#54585A;" d="M1206.2,172.4H1192c-1.7,0-3.5,0.1-5.4,0.3c-1.9,0.2-3.7,0.8-5.5,1.7c-1.7,1-3.2,2.3-4.3,4.1
				c-1.1,1.8-1.7,4.3-1.7,7.5c0,4.6,1.4,7.8,4.3,9.6c2.9,1.8,6.6,2.7,11.4,2.7c0.7,0,1.6-0.1,2.9-0.1c1.2,0,2.5-0.2,3.9-0.4
				c1.4-0.2,2.8-0.5,4.4-0.8c1.5-0.3,2.9-0.7,4.2-1.3V172.4z M1223.7,202.5c0,2.5-0.9,4.2-2.9,5.2c-2.1,1-4.5,2-7,2.7
				c-2.5,0.7-5.1,1.3-7.8,1.7c-2.7,0.4-5.3,0.7-7.9,0.9c-2.6,0.2-5.1,0.2-7.5,0.2c-6.5,0-11.9-0.7-16.2-2.1
				c-4.3-1.5-7.7-3.3-10.3-5.7c-2.5-2.4-4.3-5.2-5.2-8.5c-1-3.2-1.5-6.7-1.5-10.2c0-3.8,0.6-7.3,1.8-10.8c1.1-3.5,2.9-6.5,5.5-9.1
				c2.6-2.6,5.9-4.7,10-6.3c4.1-1.6,9.1-2.4,15-2.4h16.7v-2.7c0-2-0.2-3.9-0.6-5.6c-0.4-1.7-1.1-3.2-2.2-4.5
				c-1.2-1.2-2.7-2.2-4.7-2.9c-2-0.7-4.5-1.1-7.7-1.1c-3.4,0-7,0.3-11,1c-3.9,0.6-7.2,1.3-9.6,2.2c-1.1,0.3-1.8,0.3-2.3,0.2
				c-0.5-0.2-0.9-0.8-1.1-1.8l-2-9.1c-0.5-1.7,0-2.8,1.3-3.3c4.2-1.6,8.7-2.9,13.7-3.6c4.9-0.6,9.6-1,14-1c10.3,0,17.8,2.4,22.6,7.3
				c4.8,4.9,7.2,12,7.2,21.4V202.5z"/>
			<path style="fill:#54585A;" d="M1344.8,141.4c-2.7,0-5,0.6-7.1,1.7c-2.1,1.2-3.9,2.7-5.3,4.6c-1.5,2-2.7,4.1-3.6,6.5
				c-0.9,2.4-1.4,5-1.4,7.6h34.1c0-2.9-0.2-5.5-0.8-8c-0.5-2.4-1.3-4.5-2.6-6.4c-1.2-1.9-2.9-3.4-5-4.4
				C1350.9,142,1348.2,141.4,1344.8,141.4 M1344.6,126c11.3,0,19.8,3.1,25.3,9.4c5.5,6.3,8.2,14.8,8.2,25.8c0,2.8-0.3,5-0.9,6.9
				c-0.6,1.8-1.5,3.2-2.5,4.3c-1.1,1.1-2.4,1.8-3.8,2.2c-1.5,0.4-3,0.7-4.7,0.7h-39.4c0.1,4.2,0.6,7.6,1.8,10.4
				c1.1,2.8,2.6,5.1,4.4,6.8c1.9,1.8,4.1,3,6.5,3.7c2.5,0.7,5.2,1.1,8,1.1c3.1,0,6.3-0.4,9.3-1.3c3-0.8,5.7-1.8,8-3
				c1.6-0.7,2.7-0.4,3.3,1l4,9c0.7,1.8,0.3,2.9-1.1,3.7c-3.8,2.5-7.8,4.1-12.3,5.1c-4.4,1-8.7,1.5-12.7,1.5
				c-12,0-21.1-3.5-27.4-10.4c-6.3-6.8-9.5-17.8-9.5-32.8c0-7,0.9-13.3,2.7-18.7c1.8-5.5,4.2-10.1,7.3-13.9
				c3.2-3.8,6.9-6.7,11.2-8.6C1334.7,127,1339.5,126,1344.6,126"/>
			<path style="fill:#54585A;" d="M1505.5,172.4h-14.3c-1.7,0-3.5,0.1-5.4,0.3c-1.9,0.2-3.8,0.8-5.5,1.8c-1.7,1-3.1,2.3-4.3,4.1
				c-1.1,1.8-1.7,4.3-1.7,7.5c0,4.6,1.5,7.8,4.3,9.6c2.9,1.8,6.7,2.7,11.4,2.7c0.7,0,1.6-0.1,2.9-0.1c1.2,0,2.6-0.2,3.9-0.4
				c1.4-0.2,2.9-0.5,4.4-0.8c1.5-0.3,3-0.7,4.2-1.3V172.4z M1523,202.5c0,2.5-1,4.2-2.9,5.2c-2.1,1-4.4,2-7,2.7
				c-2.6,0.7-5.2,1.3-7.8,1.7c-2.7,0.4-5.4,0.7-7.9,0.9c-2.7,0.2-5.1,0.2-7.5,0.2c-6.5,0-11.9-0.7-16.2-2.1
				c-4.3-1.5-7.7-3.3-10.2-5.7c-2.5-2.4-4.2-5.2-5.3-8.5c-1-3.2-1.5-6.7-1.5-10.2c0-3.8,0.6-7.3,1.7-10.8c1.1-3.4,3-6.5,5.6-9.1
				c2.5-2.6,5.9-4.7,10-6.3c4.1-1.6,9.1-2.4,15-2.4h16.6v-2.7c0-2-0.2-3.9-0.6-5.6c-0.4-1.7-1.2-3.2-2.3-4.5
				c-1.2-1.2-2.7-2.2-4.7-2.9c-2-0.7-4.6-1.1-7.7-1.1c-3.3,0-7,0.3-11,1c-3.9,0.6-7.1,1.3-9.6,2.2c-1.1,0.3-1.9,0.3-2.4,0.2
				c-0.5-0.2-0.9-0.8-1-1.8l-2.1-9.1c-0.4-1.7,0-2.8,1.4-3.3c4.1-1.6,8.7-2.9,13.6-3.6c5-0.6,9.6-1,13.9-1c10.3,0,17.9,2.4,22.6,7.3
				c4.8,4.9,7.2,12,7.2,21.4V202.5z"/>
			<path style="fill:#54585A;" d="M1049.8,100.8c-0.3-0.6-1.2-0.9-2.6-0.9h-41.7c-5,0-9.2,0.8-12.6,2.4c-3.4,1.5-6.1,3.7-8.1,6.3
				c-2.1,2.7-3.6,5.8-4.4,9.2c-0.8,3.5-1.3,7-1.3,10.8v79.6c0,1.3,0.3,2.3,0.9,2.7c0.6,0.4,1.5,0.7,2.6,0.7h4.7
				c3.2-0.2,10-2,10-12.4v-36.7h44.5c1.4,0,2.1-0.3,2.5-1c0.4-0.6,0.5-1.5,0.5-2.7v-9c0-1.5-0.2-2.5-0.5-2.9
				c-0.3-0.5-1.1-0.8-2.5-0.8h-44.5v-18.6c0-3.4,0.7-6,2.3-7.7c1.5-1.8,4.2-2.6,7.9-2.6h39.7c1.3,0,2.1-0.3,2.5-0.8
				c0.4-0.4,0.6-1.4,0.6-2.9v-9.8C1050.3,102.3,1050.1,101.4,1049.8,100.8"/>
			<path style="fill:#54585A;" d="M1283.8,182.5c-1,3.5-2.4,6.4-4.2,8.6c-1.8,2.2-4,3.8-6.5,4.8c-2.5,1-5.4,1.5-8.5,1.5
				c-2,0-4.3-0.1-6.9-0.4c-2.5-0.2-5-0.8-7.4-1.6v-51c3.1-1.1,6.2-1.7,9.1-2c2.9-0.4,5.2-0.5,6.7-0.5c6,0,10.6,2.3,14,6.9
				c3.4,4.5,5,11.5,5,20.8C1285.3,174.7,1284.8,179,1283.8,182.5 M1301.1,151.8c-1.3-5.3-3.4-9.8-6.1-13.6
				c-2.7-3.8-6.2-6.8-10.5-8.9c-4.3-2.2-9.4-3.2-15.3-3.2c-2.7,0-5.8,0.2-9.1,0.7c-3.4,0.5-6.6,1.2-9.4,2.1l-0.1-30.9
				c0-1.3-0.2-2.1-0.6-2.4c-0.4-0.3-1.1-0.5-2.2-0.5h-4.7c-3.3,0.3-9.6,2.1-9.7,12v96.6c0,0.9,0.1,1.7,0.5,2.3
				c0.3,0.5,0.9,1,1.8,1.4c4.4,2.2,9.3,3.6,14.6,4.5c5.3,0.9,10.5,1.3,15.6,1.3c6.5,0,12.1-1.1,16.9-3.3c4.7-2.2,8.6-5.3,11.7-9.3
				c3-4,5.3-8.7,6.7-14.1c1.5-5.4,2.1-11.3,2.1-17.7C1303.1,162.7,1302.4,157,1301.1,151.8"/>
			<path style="fill:#54585A;" d="M1416.2,207.7l-1-8.9c-0.1-0.9-0.3-1.4-0.7-1.7c-0.3-0.2-0.9-0.3-1.7-0.2
				c-0.6,0.1-1.6,0.2-2.6,0.3c-1,0.1-2,0.1-2.7,0.1c-2,0-3.3-0.5-4-1.5c-0.7-1-1-2.9-1-5.6V97.8c0-1.2-0.2-1.9-0.7-2.2
				c-0.4-0.3-1.2-0.5-2.3-0.5h-4.8c-3.2,0.3-9.4,2.1-9.8,11.6v87.9c0,6.9,1.3,11.7,3.9,14.5c2.6,2.8,6.6,4.1,12.2,4.1
				c2,0,4.2-0.1,6.7-0.4c2.5-0.3,4.8-0.8,6.8-1.7c1-0.5,1.6-1,1.8-1.4C1416.4,209.5,1416.4,208.8,1416.2,207.7"/>
			<path style="fill:#54585A;" d="M1454.3,207.7l-1-8.9c-0.1-0.9-0.3-1.4-0.7-1.7c-0.3-0.2-0.9-0.3-1.7-0.2
				c-0.7,0.1-1.6,0.2-2.6,0.3c-1,0.1-1.9,0.1-2.7,0.1c-2,0-3.3-0.5-4-1.5c-0.7-1-1-2.9-1-5.6V97.8c0-1.2-0.3-1.9-0.7-2.2
				c-0.4-0.3-1.2-0.5-2.3-0.5h-4.8c-3.3,0.3-9.7,2.2-9.8,12.2v87.4c0,6.9,1.3,11.7,3.9,14.5c2.6,2.8,6.6,4.1,12.1,4.1
				c2,0,4.2-0.1,6.8-0.4c2.4-0.3,4.7-0.8,6.7-1.7c1-0.5,1.5-1,1.7-1.4C1454.5,209.5,1454.5,208.8,1454.3,207.7"/>
			<path style="fill:#54585A;" d="M1155.2,207.7l-1-8.9c-0.1-0.9-0.3-1.4-0.7-1.7c-0.3-0.2-0.9-0.3-1.8-0.2
				c-0.7,0.1-1.6,0.2-2.6,0.3c-1.1,0.1-2,0.1-2.7,0.1c-2,0-3.3-0.5-4-1.5c-0.7-1-1.1-2.9-1.1-5.6V97.8c0-1.2-0.2-1.9-0.6-2.2
				c-0.5-0.3-1.2-0.5-2.3-0.5h-4.8c-3.3,0.3-9.7,2.2-9.7,12.3v87.2c0,6.9,1.3,11.7,3.8,14.5c2.6,2.8,6.6,4.1,12.2,4.1
				c1.9,0,4.2-0.1,6.7-0.4c2.5-0.3,4.7-0.8,6.7-1.7c1-0.5,1.6-1,1.8-1.4C1155.4,209.5,1155.4,208.8,1155.2,207.7"/>
		</g>
		<g>
			<path style="fill:#54585A;" d="M387,126.4c0-4.6,0.7-8.8,2.3-12.6c1.5-3.8,3.8-7.1,6.8-9.9c3.1-2.8,6.8-5,11.4-6.5
				c4.6-1.5,10-2.3,16.1-2.3c2.9,0,5.9,0.1,9,0.4c3.1,0.3,6.3,0.8,9.4,1.3c3.1,0.5,6.2,1.3,9.1,2.2c2.9,0.8,5.6,1.8,8.1,2.9
				c0.8,0.6,1.4,1.1,1.6,1.5c0.2,0.4,0.1,1.2-0.3,2.3l-3.9,11.1c-0.4,1.2-0.8,1.8-1.2,2c-0.4,0.1-1,0.1-1.9-0.2
				c-5.4-1.9-10.7-3.3-15.8-4.2c-5.2-1-10-1.4-14.4-1.4c-5.6,0-9.7,1.2-12.2,3.5c-2.5,2.4-3.8,5.1-3.8,8.3c0,2,0.4,3.7,1.4,5.3
				c0.9,1.6,2.4,3.1,4.4,4.6c2.1,1.5,4.6,3,7.7,4.4c3.1,1.5,6.8,3.1,11.2,4.8c4.7,2,9.1,4,13.3,6c4.2,2,7.9,4.4,11.1,7.1
				c3.3,2.7,5.8,5.9,7.7,9.6c1.9,3.6,2.8,8.1,2.8,13.3c0,5.7-1,10.6-3.1,14.8c-2.1,4.2-5,7.7-8.6,10.4c-3.6,2.8-7.9,4.8-12.9,6.2
				c-4.9,1.3-10.3,2-16,2c-6.8,0-13.9-0.7-21.4-2c-7.5-1.3-14.4-3.7-20.7-7.2c-1.5-0.7-1.8-2-1-3.9l4.8-11.1c0.8-1.6,2-2.2,3.6-1.5
				c5.1,2.2,10.5,4,16.1,5.5c5.5,1.5,10.9,2.2,16.1,2.2c8.2,0,14-1.4,17.4-4.3c3.4-2.8,5.1-6.4,5.1-10.6c0-2.3-0.5-4.3-1.3-6.1
				c-0.9-1.7-2.2-3.3-4.1-4.8c-1.8-1.5-4.2-2.8-7-4.3c-2.8-1.3-6.1-2.8-10-4.3c-5.8-2.3-11.1-4.6-15.7-6.9
				c-4.7-2.3-8.6-4.7-11.7-7.4c-3.1-2.7-5.5-5.7-7.2-9C387.9,134.4,387,130.6,387,126.4"/>
			<path style="fill:#54585A;" d="M513.2,123.8c12.4,0,21.6,3.2,27.6,9.7c6,6.4,9,15.2,9,26.5c0,2.8-0.3,5.1-1,7
				c-0.6,1.8-1.5,3.3-2.8,4.4c-1.2,1.1-2.6,1.8-4.1,2.3c-1.6,0.4-3.3,0.6-5.1,0.6h-43.1c0.1,4.3,0.7,7.8,1.9,10.7
				c1.2,2.9,2.8,5.3,4.9,7.1c2,1.8,4.4,3.1,7.1,3.8c2.7,0.7,5.6,1.1,8.8,1.1c3.5,0,6.9-0.4,10.2-1.3c3.4-0.8,6.3-1.9,8.7-3.1
				c1.7-0.7,2.9-0.4,3.6,1l4.4,9.3c0.7,1.7,0.4,3-1.1,3.8c-4.1,2.5-8.6,4.2-13.5,5.2c-4.8,1-9.5,1.5-13.9,1.5
				c-13,0-23-3.5-29.9-10.6c-6.9-7.1-10.4-18.3-10.4-33.7c0-7.2,1-13.6,2.9-19.2c1.9-5.6,4.6-10.4,8-14.3c3.4-3.9,7.5-6.8,12.2-8.8
				C502.4,124.8,507.6,123.8,513.2,123.8 M513.6,139.6c-2.9,0-5.5,0.6-7.8,1.7c-2.2,1.2-4.2,2.7-5.8,4.6c-1.6,2-2.9,4.2-3.9,6.8
				c-1,2.5-1.5,5.1-1.6,7.8h37.2c0-3-0.3-5.7-0.8-8.2c-0.5-2.5-1.5-4.7-2.8-6.6c-1.4-1.9-3.2-3.4-5.5-4.5
				C520.2,140.2,517.2,139.6,513.6,139.6"/>
			<path style="fill:#54585A;" d="M628.1,203.8c0,7.4-0.9,13.7-2.7,19c-1.9,5.2-4.6,9.6-8.2,13.1c-3.6,3.5-8.1,6.2-13.4,8.1
				c-5.3,2-11.6,3.4-18.7,4.4c-1.8,0.3-2.9-0.2-3.1-1.8l-1.6-12.4c-0.1-1.4,0.6-2.3,2-2.6c4-0.6,7.6-1.4,10.9-2.4
				c3.3-0.9,6.1-2.2,8.4-3.8c2.3-1.6,4.1-3.5,5.3-5.9c1.2-2.3,1.9-5.2,1.9-8.7v-1c-3.1,1-6.5,1.7-10.1,2.2c-3.6,0.5-6.9,0.8-9.9,0.8
				c-6.4,0-11.9-1.1-16.5-3.2c-4.6-2.1-8.5-5.1-11.5-8.9c-3-3.8-5.3-8.4-6.7-13.7c-1.4-5.3-2.2-11.2-2.2-17.6
				c0-6.6,0.8-12.7,2.4-18.2c1.6-5.6,4.1-10.4,7.4-14.3c3.3-4,7.6-7.1,12.7-9.4c5.1-2.3,11.2-3.4,18.3-3.4c5.5,0,11.1,0.4,16.8,1.2
				c5.7,0.8,11,2.3,15.9,4.5c1.1,0.5,1.8,1.1,2.1,1.7c0.3,0.6,0.4,1.4,0.4,2.2V203.8z M571.4,168.6c0,9.6,1.8,16.7,5.5,21.2
				c3.7,4.5,8.7,6.7,15.2,6.7c1.7,0,4.1-0.2,7.2-0.5c3.1-0.3,6.4-1,9.8-2v-51.9c-2.6-0.8-5.2-1.3-8-1.6c-2.8-0.4-5.2-0.5-7.4-0.5
				c-3.3,0-6.4,0.5-9.1,1.6c-2.7,1.1-5.1,2.7-7.1,4.9c-1.9,2.2-3.4,5.2-4.5,8.8C571.9,158.8,571.4,163.3,571.4,168.6"/>
			<path style="fill:#54585A;" d="M679.1,197.1c1.2,0,2.9,0,5.1-0.1c2.2-0.1,4.7-0.3,7.7-0.9v-67.8c0-1.2,0.2-2,0.7-2.3
				c0.4-0.3,1.2-0.5,2.4-0.5h12.6c1.1,0,1.9,0.2,2.4,0.5c0.5,0.3,0.7,1.1,0.7,2.3v70.1c0,3.8-0.9,6.9-2.6,9.1
				c-1.8,2.2-4.5,3.7-8.3,4.5c-1.4,0.2-3.1,0.4-4.9,0.7c-1.8,0.2-3.8,0.4-5.7,0.4c-2,0.1-3.8,0.2-5.7,0.3c-1.8,0.1-3.4,0.1-4.9,0.1
				c-7.3,0-13.5-0.7-18.6-2.3c-5.1-1.5-9.2-4-12.3-7.2c-3.1-3.4-5.4-7.7-6.9-13c-1.4-5.3-2.2-11.8-2.2-19.3v-43.2
				c0-1.2,0.2-2,0.6-2.3c0.4-0.3,1.3-0.5,2.5-0.5h12.6c1.1,0,1.9,0.2,2.4,0.5c0.5,0.3,0.7,1.1,0.7,2.3v43.6c0,4.2,0.3,8,0.8,11.1
				c0.5,3.2,1.6,5.8,3.2,7.9c1.6,2.1,3.7,3.6,6.5,4.6C670.9,196.6,674.6,197.1,679.1,197.1"/>
			<path style="fill:#54585A;" d="M741,211.2c-0.5,0.4-1.3,0.5-2.5,0.5H726c-1,0-1.9-0.1-2.3-0.5c-0.5-0.3-0.7-1.1-0.7-2.3v-70.2
				c0-4.4,0.7-7.6,2.2-9.8c1.5-2.1,4.5-3.5,9.2-4.2c1.9-0.2,3.9-0.4,5.9-0.6c2-0.1,4-0.2,6.1-0.2c6.6,0,13,0.8,19,2.6
				c6.1,1.7,11.6,4.7,16.6,8.8c0.7,0.5,1.1,1.1,1,1.5c-0.1,0.5-0.2,1-0.6,1.6l-7.4,10.8c-0.6,0.9-1.1,1.3-1.6,1.2
				c-0.5-0.1-1.2-0.4-1.9-1c-3.1-2.7-6.5-4.8-10.1-6.3c-3.6-1.5-7.6-2.2-11.8-2.2c-1.3,0-2.6,0.1-3.9,0.2c-1.3,0.1-2.5,0.3-3.7,0.5
				v67.3C741.8,210.1,741.5,210.9,741,211.2"/>
			<path style="fill:#54585A;" d="M859.2,168.3c0,14.5-3.3,25.7-10,33.5c-6.6,7.8-16.5,11.7-29.7,11.7c-13.1,0-22.8-3.8-29.2-11.4
				c-6.4-7.6-9.6-18.7-9.6-33.3c0-7.2,1-13.6,2.9-19.1c1.9-5.6,4.6-10.3,8.1-14.1c3.5-3.8,7.6-6.7,12.4-8.8c4.8-2,10.1-3,15.9-3
				c12.9,0,22.6,3.9,29.2,11.9C855.9,143.5,859.2,154.4,859.2,168.3 M839.9,168.8c0-3.9-0.3-7.7-0.9-11.2c-0.6-3.5-1.6-6.6-3.1-9.3
				c-1.4-2.7-3.4-4.8-6-6.3c-2.5-1.5-5.7-2.3-9.6-2.3c-3.5,0-6.5,0.8-9.1,2.2c-2.6,1.5-4.7,3.5-6.5,6c-1.7,2.5-3,5.5-3.8,9
				c-0.8,3.5-1.2,7.3-1.2,11.4c0,9.1,1.5,16.3,4.4,21.5c2.9,5.2,8.1,7.8,15.5,7.8c3.8,0,6.9-0.8,9.5-2.4c2.6-1.6,4.7-3.7,6.2-6.3
				c1.6-2.6,2.7-5.7,3.4-9.2C839.6,176.3,839.9,172.6,839.9,168.8"/>
			<path style="fill:#54585A;" d="M926.3,187.6c0,4.4-0.8,8.2-2.4,11.5c-1.7,3.3-3.9,6-6.8,8.1c-2.8,2.2-6.2,3.7-10.1,4.8
				c-3.9,1-8.1,1.5-12.7,1.5c-2.6,0-5.4-0.1-8.3-0.4c-2.9-0.3-5.8-0.7-8.7-1.2c-2.9-0.5-5.7-1.3-8.4-2.2c-2.7-0.9-5.2-2-7.4-3.3
				c-1.6-0.9-2-2.2-1.2-3.9l3.9-9.2c0.5-1,1.1-1.6,1.6-1.9c0.6-0.3,1.4-0.2,2.6,0.4c3.9,1.8,8.2,3.3,12.9,4.3
				c4.7,1,8.9,1.5,12.6,1.5c4.5,0,8-0.9,10.2-2.7c2.3-1.8,3.4-4.1,3.4-7c0-3.2-1.5-5.6-4.4-7.5c-2.9-1.8-7.3-3.9-13.1-6
				c-4.4-1.6-8.3-3.3-11.6-4.9c-3.3-1.7-6-3.5-8.2-5.5c-2.2-2-3.8-4.3-5-6.8c-1.2-2.5-1.7-5.4-1.7-8.7c0-3.6,0.6-6.9,1.9-9.9
				c1.3-3,3.3-5.6,5.8-7.8c2.6-2.2,5.8-3.9,9.5-5.1c3.8-1.3,8.2-1.9,13.2-1.9c4.5,0,9,0.4,13.6,1.2c4.5,0.8,8.9,2.1,13.1,3.9
				c0.9,0.4,1.4,1,1.6,1.6c0.2,0.6,0.1,1.4-0.1,2.3l-3.7,9.3c-0.3,0.9-0.7,1.4-1.2,1.5c-0.5,0.1-1.1,0-2-0.3
				c-4.2-1.5-7.9-2.6-11.1-3.1c-3.2-0.6-6.6-0.8-10.3-0.8c-4,0-6.9,0.8-8.7,2.5c-1.9,1.7-2.7,3.6-2.7,5.7c0,1.5,0.3,2.8,0.9,3.9
				c0.6,1.1,1.6,2.1,2.9,3c1.3,1,3,1.9,5.1,2.9c2.1,1,4.7,2,7.7,3.2c3.4,1.3,6.8,2.7,10.1,4.2c3.3,1.4,6.2,3.2,8.8,5.3
				c2.5,2.1,4.6,4.5,6.1,7.4C925.5,180.1,926.3,183.6,926.3,187.6"/>
		</g>
	</g>
	<g>
		<path style="fill:#43B12E;" d="M189.8,88.1c-39.5,0-72.1,29.8-76.7,68c25.1-5,50.9-7.5,76.7-7.5c25.8,0,51.5,2.5,76.7,7.5
			C261.9,117.9,229.3,88.1,189.8,88.1z"/>
		<path style="fill:#43B12E;" d="M191.2,25.1C112.1,25.1,48,89.2,48,168.3c0,79.1,64.1,143.2,143.2,143.2s143.2-64.1,143.2-143.2
			C334.5,89.2,270.3,25.1,191.2,25.1z M282,174.9l-9.2-2.1c-24.7-5.5-50.1-8.5-75.6-9v78.6c0,6.6,5.4,12,12,12c6.6,0,12-5.4,12-12
			c0-4.2,3.4-7.5,7.5-7.5c4.2,0,7.5,3.4,7.5,7.5c0,14.9-12.1,27-27,27s-27-12.1-27-27v-78.6c-25.5,0.5-50.9,3.5-75.6,9l-9.2,2.1
			l0-9.6c0-50.9,41.4-92.3,92.3-92.3c50.9,0,92.3,41.4,92.3,92.3L282,174.9z"/>
	</g>
	<g>
		<path style="fill:#54585A;" d="M823.5,59.3c-0.4,0-0.7,0-0.9-0.1c-0.2-0.1-0.4-0.3-0.6-0.8l-3.1-9h-17.3l-3.1,9
			c-0.2,0.6-0.6,0.9-1.3,0.9h-4.2c-0.4,0-0.7-0.1-0.8-0.3c-0.1-0.2-0.1-0.5,0-0.8l13.9-39.5c0.3-1,0.7-1.6,1.1-1.9
			c0.4-0.3,1.1-0.5,2-0.5h1.8c1.1,0,1.9,0.2,2.2,0.6c0.4,0.4,0.7,1,1.1,1.9l13.8,39.5c0.1,0.3,0.1,0.6,0,0.8
			c-0.1,0.2-0.4,0.4-0.8,0.4H823.5z M813.2,31.5l-2.9-9H810l-2.8,8.7l-4.2,13.1h14.3L813.2,31.5z"/>
		<path style="fill:#54585A;" d="M849.3,26.4c2,0,4,0.1,6.1,0.4c2.1,0.3,4,0.8,5.9,1.6c0.5,0.2,0.7,0.6,0.7,1.2v27.2
			c0,2.7-0.3,5.1-1,6.9c-0.6,1.9-1.6,3.5-2.9,4.7c-1.3,1.3-2.9,2.3-4.9,2.9c-1.9,0.7-4.2,1.2-6.7,1.6c-0.3,0-0.6,0-0.7-0.1
			c-0.1-0.1-0.3-0.3-0.3-0.6L845,69c0-0.5,0.2-0.7,0.7-0.8c1.8-0.2,3.3-0.6,4.6-1c1.3-0.4,2.5-1,3.4-1.7c0.9-0.7,1.6-1.6,2.1-2.6
			c0.5-1,0.7-2.3,0.7-3.9l-0.1-0.4c-1.3,0.4-2.7,0.7-4.3,1c-1.5,0.2-2.9,0.4-4,0.4c-2.4,0-4.5-0.4-6.2-1.2c-1.7-0.8-3.2-1.9-4.3-3.4
			c-1.1-1.4-2-3.2-2.5-5.2c-0.5-2-0.8-4.2-0.8-6.6c0-2.5,0.3-4.8,0.9-6.9c0.6-2.1,1.5-3.9,2.7-5.4c1.2-1.5,2.7-2.7,4.6-3.6
			C844.5,26.9,846.7,26.4,849.3,26.4z M856.6,32c-1.2-0.4-2.4-0.7-3.7-0.8c-1.3-0.1-2.4-0.2-3.4-0.2c-1.4,0-2.7,0.2-3.9,0.7
			c-1.2,0.5-2.2,1.2-3,2.2c-0.8,1-1.5,2.2-2,3.8c-0.5,1.5-0.7,3.4-0.7,5.6c0,4.1,0.8,7.1,2.4,9.1c1.6,2,3.8,3,6.6,3
			c0.8,0,1.9-0.1,3.3-0.2c1.4-0.2,2.9-0.5,4.5-1V32z"/>
		<path style="fill:#54585A;" d="M885.8,26.4c2.3,0,4.4,0.3,6.1,1c1.7,0.7,3.1,1.6,4.2,2.8c1.1,1.2,1.9,2.6,2.4,4.3
			c0.5,1.7,0.8,3.5,0.8,5.5c0,1-0.1,1.8-0.4,2.4c-0.2,0.6-0.6,1.1-1,1.4c-0.4,0.3-0.9,0.6-1.5,0.7c-0.6,0.1-1.1,0.2-1.8,0.2h-17.7
			c0,1.9,0.3,3.6,0.8,4.9c0.5,1.4,1.2,2.4,2.1,3.3c0.9,0.8,1.9,1.4,3.1,1.8c1.2,0.4,2.4,0.6,3.8,0.6c1.4,0,2.7-0.2,4-0.5
			c1.3-0.3,2.4-0.7,3.3-1.2c0.5-0.3,0.9-0.2,1.2,0.3l1.3,2.6c0.3,0.6,0.2,1-0.4,1.2c-1.5,0.9-3.1,1.5-4.8,1.8
			c-1.7,0.3-3.4,0.5-5,0.5c-2.3,0-4.4-0.3-6.2-1c-1.8-0.7-3.4-1.7-4.6-3c-1.3-1.4-2.2-3.1-2.9-5.2c-0.7-2.1-1-4.6-1-7.5
			c0-2.7,0.4-5.1,1.1-7.2c0.7-2.1,1.7-3.9,3-5.3c1.3-1.4,2.8-2.5,4.5-3.3C881.9,26.8,883.7,26.4,885.8,26.4z M894.2,40.5
			c0-1.3-0.1-2.5-0.4-3.7c-0.2-1.2-0.7-2.2-1.3-3.1c-0.6-0.9-1.5-1.6-2.6-2.1c-1.1-0.5-2.5-0.8-4.1-0.8c-1.4,0-2.6,0.3-3.6,0.8
			c-1,0.5-1.9,1.2-2.7,2.1c-0.7,0.9-1.3,1.9-1.7,3c-0.4,1.1-0.7,2.4-0.7,3.6H894.2z"/>
		<path style="fill:#54585A;" d="M934.6,59.2c-0.1,0.1-0.4,0.2-0.8,0.2h-3.4c-0.3,0-0.6-0.1-0.7-0.2c-0.2-0.1-0.2-0.4-0.2-0.8V42.1
			c0-1.8-0.2-3.5-0.5-4.8c-0.3-1.4-0.8-2.5-1.6-3.4c-0.8-0.9-1.8-1.6-3.1-2.1c-1.3-0.5-2.9-0.7-4.9-0.7c-0.5,0-1.2,0-2.3,0.1
			c-1.1,0.1-2.3,0.2-3.6,0.4v26.8c0,0.4-0.1,0.7-0.2,0.8c-0.2,0.1-0.4,0.2-0.7,0.2h-3.4c-0.3,0-0.6-0.1-0.7-0.2
			c-0.2-0.1-0.2-0.4-0.2-0.8V31.6c0-1.4,0.3-2.5,0.8-3.2c0.6-0.8,1.6-1.2,3-1.4c0.4-0.1,1-0.2,1.7-0.2c0.7-0.1,1.4-0.1,2.1-0.2
			c0.7-0.1,1.5-0.1,2.1-0.1c0.7,0,1.3,0,1.8,0c2.6,0,4.9,0.3,6.8,0.9c1.9,0.6,3.4,1.5,4.6,2.7c1.2,1.3,2.1,2.9,2.7,4.8
			c0.6,2,0.9,4.3,0.9,7.1v16.5C934.8,58.8,934.8,59.1,934.6,59.2z"/>
		<path style="fill:#54585A;" d="M958.9,55.3c1.4,0,2.8-0.2,4.1-0.6c1.3-0.4,2.4-0.8,3.3-1.2c0.4-0.2,0.6-0.3,0.8-0.2
			c0.2,0.1,0.3,0.3,0.4,0.5l1.2,2.6c0.3,0.5,0.2,1-0.3,1.3c-1.6,0.9-3.3,1.5-5.1,1.8c-1.8,0.3-3.6,0.5-5.3,0.5
			c-4.5,0-7.9-1.4-10.3-4.1s-3.6-6.9-3.6-12.3c0-2.6,0.3-5,1-7.1c0.7-2.1,1.6-3.9,2.9-5.4c1.2-1.5,2.8-2.6,4.6-3.4
			c1.8-0.8,3.8-1.2,6.1-1.2c1.6,0,3.2,0.2,4.7,0.5c1.5,0.3,2.9,0.9,4.3,1.7c0.6,0.3,0.7,0.8,0.4,1.3l-1.3,2.5
			c-0.1,0.2-0.3,0.4-0.4,0.5c-0.1,0.1-0.4,0.1-0.8-0.2c-1-0.5-2-0.8-3.2-1.1c-1.1-0.3-2.4-0.4-3.7-0.4c-1.6,0-3,0.3-4.2,1
			c-1.2,0.7-2.1,1.6-2.9,2.7c-0.8,1.1-1.3,2.5-1.7,3.9c-0.3,1.5-0.5,3-0.5,4.7s0.1,3.2,0.4,4.6c0.3,1.4,0.8,2.7,1.5,3.8
			c0.7,1.1,1.7,1.9,2.9,2.5C955.6,55,957.1,55.3,958.9,55.3z"/>
		<path style="fill:#54585A;" d="M984.4,18.5c0,1-0.3,1.8-1,2.5c-0.7,0.7-1.5,1-2.5,1c-1,0-1.8-0.3-2.5-1c-0.7-0.7-1.1-1.5-1.1-2.5
			c0-1,0.4-1.9,1.1-2.6c0.7-0.7,1.6-1,2.5-1c1,0,1.8,0.3,2.5,1C984,16.6,984.4,17.4,984.4,18.5z M983.4,58.4c0,0.4-0.1,0.7-0.2,0.8
			c-0.1,0.1-0.4,0.2-0.8,0.2h-3.3c-0.3,0-0.6-0.1-0.8-0.2c-0.2-0.1-0.3-0.4-0.3-0.8V28c0-0.4,0.1-0.7,0.3-0.8
			c0.2-0.1,0.4-0.2,0.8-0.2h3.3c0.4,0,0.6,0.1,0.8,0.2c0.1,0.1,0.2,0.4,0.2,0.8V58.4z"/>
		<path style="fill:#54585A;" d="M1019.3,56.3c0,0.8-0.3,1.4-0.9,1.6c-1.8,0.8-3.8,1.4-6,1.7c-2.2,0.3-4.2,0.4-6.2,0.4
			c-2.7,0-4.8-0.3-6.5-0.8c-1.7-0.6-3-1.3-4-2.2c-1-0.9-1.7-2-2.1-3.3s-0.6-2.5-0.6-3.9c0-1.4,0.2-2.8,0.7-4.1
			c0.5-1.3,1.2-2.5,2.3-3.5c1.1-1,2.4-1.8,4.1-2.4c1.7-0.6,3.8-0.9,6.2-0.9h7.5v-1.3c0-1-0.1-1.8-0.3-2.6c-0.2-0.8-0.5-1.4-1.1-2
			c-0.5-0.6-1.3-1-2.2-1.3c-1-0.3-2.2-0.5-3.7-0.5c-1.4,0-3,0.1-4.6,0.4c-1.6,0.2-2.9,0.5-4,0.9c-0.3,0.1-0.6,0.2-0.8,0.1
			c-0.2,0-0.3-0.2-0.4-0.6l-0.7-2.6c-0.1-0.2-0.1-0.4,0-0.6c0.1-0.2,0.3-0.3,0.6-0.5c1.6-0.7,3.3-1.1,5.3-1.4c2-0.3,3.8-0.4,5.5-0.4
			c4.1,0,7.1,0.9,9,2.7c1.9,1.8,2.8,4.5,2.8,8V56.3z M1013.8,43.5h-7.1c-0.7,0-1.6,0.1-2.5,0.2c-1,0.1-1.9,0.4-2.7,0.8
			c-0.9,0.4-1.6,1.1-2.2,1.9c-0.6,0.8-0.9,2-0.9,3.5c0,1.1,0.2,2,0.6,2.8c0.4,0.8,1,1.4,1.7,1.8c0.7,0.4,1.5,0.7,2.5,0.9
			c0.9,0.2,2,0.3,3.1,0.3c0.4,0,0.9,0,1.4,0c0.6,0,1.2-0.1,2-0.2s1.4-0.2,2.2-0.4c0.7-0.1,1.4-0.3,2.1-0.6V43.5z"/>
		<path style="fill:#54585A;" d="M1048.7,43.7c0-2.3,0.3-4.5,0.9-6.6c0.6-2.1,1.5-3.9,2.7-5.5s2.8-2.9,4.6-3.8
			c1.9-0.9,4.1-1.4,6.7-1.4c0.9,0,2.1,0.1,3.3,0.2c1.3,0.1,2.6,0.4,4,0.8v-12c0-0.4,0.1-0.7,0.2-0.8c0.1-0.1,0.4-0.2,0.8-0.2h3.4
			c0.3,0,0.6,0.1,0.7,0.2c0.2,0.1,0.2,0.4,0.2,0.8v41.3c0,0.5-0.2,0.9-0.7,1.1c-2.1,0.9-4.3,1.5-6.5,1.8c-2.2,0.3-4.3,0.4-6.1,0.4
			c-2.6,0-4.8-0.4-6.5-1.1c-1.8-0.8-3.2-1.8-4.4-3.3c-1.1-1.4-2-3.1-2.5-5.1C1049,48.5,1048.7,46.2,1048.7,43.7z M1054.3,43.7
			c0,2.2,0.2,4,0.7,5.4c0.5,1.5,1.1,2.7,1.9,3.6c0.8,0.9,1.8,1.6,3,2c1.2,0.4,2.5,0.6,4,0.6c1,0,2.2-0.1,3.6-0.3
			c1.4-0.2,2.5-0.5,3.5-0.8V32.1c-1.6-0.4-2.9-0.7-3.9-0.9c-1.1-0.1-2.1-0.2-3-0.2c-1.4,0-2.7,0.2-3.9,0.7c-1.2,0.5-2.2,1.2-3.1,2.3
			c-0.9,1-1.5,2.3-2,3.9C1054.5,39.6,1054.3,41.5,1054.3,43.7z"/>
		<path style="fill:#54585A;" d="M1100.1,26.4c2.3,0,4.4,0.3,6.1,1c1.7,0.7,3.1,1.6,4.2,2.8c1.1,1.2,1.9,2.6,2.4,4.3
			c0.5,1.7,0.8,3.5,0.8,5.5c0,1-0.1,1.8-0.4,2.4c-0.2,0.6-0.6,1.1-1,1.4c-0.4,0.3-0.9,0.6-1.5,0.7c-0.6,0.1-1.1,0.2-1.8,0.2h-17.7
			c0,1.9,0.3,3.6,0.8,4.9c0.5,1.4,1.2,2.4,2.1,3.3c0.9,0.8,1.9,1.4,3.1,1.8c1.2,0.4,2.4,0.6,3.8,0.6c1.4,0,2.7-0.2,4-0.5
			c1.3-0.3,2.4-0.7,3.3-1.2c0.5-0.3,0.9-0.2,1.2,0.3l1.3,2.6c0.3,0.6,0.2,1-0.4,1.2c-1.5,0.9-3.1,1.5-4.8,1.8
			c-1.7,0.3-3.4,0.5-5,0.5c-2.3,0-4.4-0.3-6.2-1c-1.8-0.7-3.4-1.7-4.6-3c-1.3-1.4-2.2-3.1-2.9-5.2c-0.7-2.1-1-4.6-1-7.5
			c0-2.7,0.4-5.1,1.1-7.2c0.7-2.1,1.7-3.9,3-5.3c1.3-1.4,2.8-2.5,4.5-3.3C1096.2,26.8,1098.1,26.4,1100.1,26.4z M1108.5,40.5
			c0-1.3-0.1-2.5-0.4-3.7c-0.2-1.2-0.7-2.2-1.3-3.1c-0.6-0.9-1.5-1.6-2.6-2.1c-1.1-0.5-2.5-0.8-4.1-0.8c-1.4,0-2.6,0.3-3.6,0.8
			c-1,0.5-1.9,1.2-2.7,2.1c-0.7,0.9-1.3,1.9-1.7,3c-0.4,1.1-0.7,2.4-0.7,3.6H1108.5z"/>
	</g>
</g>
</svg>
